<?xml version="1.0" standalone="no"?>
<!DOCTYPE svg PUBLIC "-//W3C//DTD SVG 20010904//EN"
 "http://www.w3.org/TR/2001/REC-SVG-20010904/DTD/svg10.dtd">
<svg version="1.0" xmlns="http://www.w3.org/2000/svg"
 width="512.000000pt" height="512.000000pt" viewBox="0 0 512.000000 512.000000"
 preserveAspectRatio="xMidYMid meet">
<metadata>
Created by potrace 1.11, written by Peter Selinger 2001-2013
</metadata>
<g transform="translate(0.000000,512.000000) scale(0.100000,-0.100000)"
fill="#000000" stroke="none">
<path d="M0 4970 l0 -150 86 -167 c96 -187 96 -187 96 -260 0 -39 4 -53 15
-53 8 0 11 -4 8 -10 -8 -13 -45 10 -45 28 0 7 -4 10 -10 7 -5 -3 -10 -17 -10
-31 0 -14 4 -23 9 -19 6 3 13 -16 17 -42 6 -42 32 -88 84 -150 5 -7 10 -22 10
-34 0 -11 13 -38 29 -58 15 -20 34 -53 40 -73 7 -20 20 -47 30 -60 9 -13 30
-45 45 -73 69 -122 79 -142 93 -168 26 -48 1 -49 -50 -2 -26 25 -47 46 -47 48
0 2 -34 38 -75 80 -41 41 -75 80 -75 85 0 6 -8 13 -18 16 -10 4 -43 30 -74 59
-31 28 -68 61 -82 71 -14 10 -26 26 -26 35 0 9 -12 24 -25 34 l-25 18 5 -458
c6 -604 6 -586 24 -600 9 -6 19 -9 23 -7 12 8 48 -53 48 -81 0 -20 -14 -42
-50 -78 l-50 -50 0 -141 0 -142 34 4 c29 3 40 -2 77 -39 l43 -43 9 29 c11 31
44 64 65 65 25 0 62 -32 62 -55 0 -23 -34 -45 -71 -45 -11 0 -29 -5 -40 -10
-14 -8 -19 -7 -19 2 0 18 -29 -24 -30 -43 0 -9 9 -24 21 -35 21 -19 62 -22
409 -34 14 -1 70 0 125 2 l100 3 3 28 c2 16 -1 34 -7 41 -13 16 -151 29 -183
18 -13 -5 -53 -6 -89 -3 -51 5 -74 13 -102 34 -35 27 -36 29 -21 52 16 24 19
58 14 134 -5 59 21 81 96 81 30 0 54 3 54 8 -1 4 -5 27 -10 52 -5 28 -5 49 2
57 5 7 7 17 3 22 -9 16 62 41 95 34 20 -4 41 1 65 16 46 27 53 26 94 -8 31
-25 35 -35 47 -117 13 -82 12 -91 -5 -114 -44 -61 -44 -63 7 -117 66 -70 250
-189 270 -176 38 24 55 62 60 136 4 64 0 85 -28 168 -58 169 -51 262 23 308
51 31 79 27 126 -20 27 -28 41 -36 41 -25 0 28 97 22 143 -9 43 -30 47 -52 13
-65 -13 -5 -27 -14 -32 -21 -4 -8 -3 -10 4 -5 19 12 14 -20 -10 -60 -21 -36
-22 -36 -30 -13 -5 12 -6 29 -4 36 3 7 1 13 -4 13 -5 0 -9 10 -7 22 1 16 -4
24 -18 26 -44 5 -46 -7 -16 -153 16 -77 37 -160 46 -185 9 -25 21 -61 27 -80
8 -29 72 -150 125 -237 7 -13 23 -23 34 -23 11 0 34 -13 50 -29 33 -33 33 -33
18 19 -9 31 -8 43 10 83 12 25 21 53 21 61 0 25 -25 8 -37 -24 -12 -33 -33
-39 -54 -14 -20 24 -1 45 58 63 28 9 55 20 59 24 16 16 34 6 34 -18 0 -14 11
-37 25 -51 35 -35 45 -57 45 -102 0 -43 -40 -109 -85 -138 -29 -19 -34 -40 -6
-24 11 5 27 10 35 10 13 0 13 -5 -1 -42 -19 -52 -18 -72 3 -133 8 -26 21 -93
28 -149 10 -90 14 -101 31 -101 14 0 27 -14 43 -46 12 -25 42 -66 67 -90 l44
-44 -15 -45 c-15 -43 -15 -95 1 -161 6 -24 5 -26 -27 -21 -18 3 -36 10 -40 16
-4 6 -8 -8 -8 -31 0 -27 16 -84 42 -150 l42 -108 0 -160 c1 -88 5 -167 10
-175 6 -8 26 -35 47 -60 42 -50 94 -149 103 -195 4 -22 0 -37 -15 -55 -18 -21
-30 -25 -75 -25 -30 0 -54 -1 -54 -2 0 -1 14 -16 32 -33 l32 -33 -27 -23 c-23
-20 -26 -26 -16 -42 10 -17 5 -28 -39 -81 -29 -34 -52 -64 -52 -67 0 -11 81
-3 85 9 44 138 86 202 156 237 48 25 59 25 59 -1 0 -27 16 -16 25 18 10 43 83
121 132 144 66 30 77 24 84 -46 4 -33 19 -93 33 -133 21 -56 56 -199 56 -228
0 -2 11 -4 24 -4 21 0 27 8 39 53 19 68 27 124 19 132 -12 12 -31 87 -25 101
3 8 -1 14 -11 14 -23 0 -29 41 -12 75 18 34 21 95 6 95 -11 0 -13 60 -2 75 11
16 63 55 73 55 5 0 8 -3 8 -7 -5 -34 11 -43 171 -95 52 -17 107 -40 122 -50
14 -10 29 -18 32 -18 4 0 34 -22 69 -48 34 -27 70 -52 80 -55 9 -4 17 -13 17
-22 0 -25 29 -17 44 13 17 34 13 89 -9 111 -13 14 -15 13 -16 -4 0 -13 -5 -7
-15 16 -8 20 -26 42 -38 49 -13 7 -37 29 -52 50 -26 35 -55 54 -76 51 -5 -1
-8 3 -8 8 0 6 -8 10 -18 9 -9 0 -37 3 -62 6 -25 4 -75 8 -112 9 -40 1 -67 6
-65 12 2 6 57 19 123 29 111 18 143 31 144 59 0 4 -13 13 -30 18 -16 6 -30 14
-30 18 0 9 57 63 96 89 28 19 33 20 38 6 3 -9 4 -19 1 -23 -7 -12 163 -51 241
-55 38 -3 82 -8 98 -12 26 -6 28 -5 22 11 -6 18 -6 18 11 3 22 -20 48 -24 92
-14 24 6 36 4 42 -5 6 -11 9 -10 15 4 3 9 14 17 24 17 20 0 34 26 20 35 -7 4
-6 13 0 25 7 13 6 21 -4 29 -10 9 -15 8 -20 -4 -9 -24 -26 -18 -26 10 0 14 5
25 11 25 5 0 7 5 3 12 -5 8 -11 6 -19 -5 -7 -10 -17 -17 -24 -17 -15 0 -14 -4
9 -46 12 -20 18 -39 15 -42 -8 -9 -25 12 -30 37 -2 13 -10 30 -17 39 -9 11
-10 16 -2 19 21 7 4 41 -17 36 -10 -3 -16 -10 -13 -15 14 -22 -21 -26 -49 -6
-23 17 -31 18 -37 7 -7 -11 -13 -11 -34 0 -13 8 -32 11 -42 7 -9 -3 -22 -2
-29 4 -9 8 -15 8 -20 0 -3 -6 -11 -8 -16 -4 -5 3 -15 1 -22 -4 -7 -5 -29 -9
-49 -7 -27 1 -38 -2 -38 -12 0 -8 -5 -13 -12 -11 -26 9 -16 25 27 46 47 23
316 102 346 102 10 0 35 16 56 35 35 32 64 42 110 36 6 -1 14 2 17 7 3 5 27 7
54 4 36 -3 53 0 64 12 15 14 17 14 29 0 11 -14 14 -13 21 7 7 18 5 27 -8 36
-17 12 -17 13 -1 13 10 0 20 -7 23 -15 4 -8 15 -15 25 -15 18 0 18 1 -1 20
-21 21 -65 27 -75 10 -5 -8 -11 -7 -21 1 -7 6 -21 8 -31 5 -9 -4 -20 -1 -24 6
-5 8 -11 9 -21 1 -7 -5 -29 -13 -48 -17 -26 -4 -31 -3 -20 5 12 8 9 10 -12 6
-15 -2 -29 1 -32 7 -3 7 -11 3 -21 -9 -13 -16 -17 -17 -24 -6 -6 9 -11 10 -15
2 -4 -6 -28 -16 -53 -23 -30 -7 -47 -17 -51 -30 -3 -11 -10 -17 -18 -14 -20 8
-17 -21 4 -42 25 -25 16 -42 -23 -42 -24 0 -39 7 -50 23 -9 13 -18 18 -23 12
-4 -5 -16 -11 -27 -12 -11 -1 -14 0 -7 3 6 3 12 13 12 22 0 10 9 23 20 30 12
7 19 16 16 20 -11 18 39 58 134 108 30 16 57 31 60 34 3 3 24 12 47 18 24 7
51 22 62 33 12 13 21 17 25 10 5 -7 13 -7 26 1 13 9 16 15 8 19 -11 7 9 18
132 72 14 6 30 11 37 12 6 0 20 8 30 17 11 10 36 19 56 20 20 2 37 6 37 10 0
21 264 61 312 47 21 -6 36 -5 45 3 18 14 74 -1 162 -45 79 -39 183 -138 234
-222 74 -122 130 -347 121 -485 -13 -188 -21 -244 -65 -435 -31 -134 -59 -239
-83 -312 l-14 -43 179 0 179 0 0 442 0 441 -36 101 c-41 115 -157 358 -184
386 -3 3 -23 28 -44 55 -35 44 -101 111 -138 140 -42 34 -234 135 -254 135
-28 0 -16 22 31 54 16 11 17 17 7 29 -10 12 -10 16 3 21 9 3 15 0 15 -10 0 -8
5 -12 10 -9 15 9 12 36 -5 49 -18 13 -87 167 -79 175 18 18 214 -132 214 -163
0 -7 12 -25 28 -39 38 -38 62 -66 62 -74 0 -4 9 -16 19 -27 36 -39 148 -231
199 -344 29 -62 52 -116 52 -120 0 -4 7 -19 14 -34 8 -16 27 -67 41 -115 15
-49 31 -92 36 -97 14 -16 12 620 -3 661 -7 18 -15 33 -19 33 -3 0 -54 47 -113
105 -59 58 -109 105 -111 105 -2 0 -25 14 -51 31 -25 18 -69 43 -96 56 -60 29
-58 39 3 18 67 -24 109 -45 164 -84 27 -19 64 -44 81 -56 17 -12 52 -41 78
-66 77 -72 76 -72 76 29 0 75 -3 92 -20 110 -12 12 -25 22 -30 22 -5 0 -11 8
-14 18 -4 11 -18 25 -31 32 -14 7 -25 19 -25 27 0 7 -4 13 -9 13 -16 0 -131
107 -131 122 0 11 -43 68 -90 118 l-29 31 -38 -43 c-21 -23 -48 -53 -60 -66
-13 -12 -23 -26 -23 -30 0 -4 -14 -13 -31 -19 -17 -7 -28 -17 -24 -22 3 -6 0
-9 -7 -6 -17 6 -52 -21 -43 -34 3 -6 0 -9 -8 -5 -8 3 -19 -1 -25 -9 -10 -12 1
-18 60 -35 40 -11 82 -22 93 -24 11 -2 20 -11 20 -21 0 -10 18 -35 40 -55 22
-20 49 -48 60 -62 l20 -25 -20 15 c-11 8 -22 17 -25 20 -46 49 -168 122 -285
170 -86 36 -276 36 -375 1 -30 -11 -50 -20 -45 -21 12 -2 -73 -26 -137 -40
-25 -5 -75 -21 -109 -35 -35 -14 -73 -27 -84 -30 -11 -2 -51 -16 -88 -30 -37
-14 -75 -25 -83 -25 -9 0 -22 -7 -30 -15 -9 -8 -27 -18 -42 -21 -50 -11 -82
-26 -82 -40 0 -8 -6 -11 -15 -8 -8 4 -15 12 -15 20 0 8 -9 14 -20 14 -11 0
-20 5 -20 10 0 6 -6 10 -14 10 -8 0 -18 5 -21 10 -9 15 5 51 17 44 7 -4 6 -9
-2 -14 -17 -10 -2 -33 17 -26 9 4 11 2 7 -5 -4 -7 -1 -10 7 -7 15 5 13 41 -2
46 -5 2 -7 7 -4 12 3 4 -9 10 -25 12 -20 3 -30 0 -30 -8 0 -8 -6 -11 -15 -8
-27 11 4 36 34 29 l26 -6 -23 16 c-20 15 -25 15 -40 3 -9 -8 -25 -18 -35 -21
-17 -6 -17 -8 -3 -23 21 -21 20 -24 -6 -21 -13 1 -33 12 -46 25 -13 12 -27 22
-32 22 -4 0 -7 11 -6 24 2 17 -3 26 -15 29 -16 4 -17 2 -8 -14 5 -11 9 -29 7
-40 -2 -13 6 -24 22 -32 33 -17 35 -61 3 -65 -13 -2 -23 1 -23 7 0 6 -7 11
-15 11 -8 0 -15 8 -16 18 0 14 -2 14 -9 -3 -5 -11 -9 -14 -9 -7 -1 17 -18 15
-25 -4 -4 -11 1 -18 14 -21 11 -3 17 -9 15 -14 -3 -4 -13 -5 -22 -2 -9 4 -21
-1 -29 -12 -13 -17 -14 -17 -14 -2 0 9 5 17 10 17 6 0 10 9 10 20 0 11 -4 20
-10 20 -5 0 -10 -4 -10 -10 0 -5 -8 -7 -17 -4 -14 5 -15 4 -4 -4 10 -7 11 -14
2 -28 -10 -18 -11 -18 -17 3 -3 13 -10 20 -15 17 -5 -3 -7 -10 -4 -15 4 -5 -1
-9 -9 -9 -8 0 -17 8 -19 17 -3 13 -5 12 -6 -5 -1 -14 -5 -20 -12 -16 -6 3 -8
17 -4 31 4 16 2 22 -5 18 -5 -3 -10 0 -10 8 0 10 -7 13 -19 10 -11 -3 -21 1
-24 9 -2 7 -2 2 0 -11 3 -18 0 -22 -11 -18 -9 4 -16 2 -16 -3 0 -6 -5 -10 -10
-10 -13 0 -9 32 4 41 5 4 6 15 2 24 -6 16 -8 17 -24 1 -10 -9 -32 -16 -49 -16
-32 0 -59 -22 -48 -40 4 -6 -6 -10 -24 -10 -17 0 -31 5 -31 10 0 19 -18 10
-23 -12 -5 -17 -9 -19 -20 -10 -15 12 -33 1 -37 -23 -3 -15 -10 -20 -10 -6 0
8 -14 10 -44 7 -38 -3 -44 -1 -39 13 3 12 1 12 -11 -3 -9 -11 -17 -18 -18 -15
-24 39 -27 48 -14 43 8 -3 17 -1 21 5 4 7 -7 11 -29 11 -41 0 -42 -2 -20 -25
9 -9 13 -19 9 -23 -3 -4 -11 1 -17 11 -7 14 -17 17 -35 12 -16 -4 -22 -2 -18
5 3 5 -1 10 -9 10 -10 0 -13 -6 -9 -17 5 -15 3 -15 -14 2 -20 20 -20 20 11 27
19 4 34 2 38 -5 6 -9 8 -9 8 0 0 15 103 29 108 14 2 -6 8 -11 13 -11 6 0 8 4
4 9 -3 6 29 9 77 9 61 0 97 6 136 21 30 12 58 19 63 16 5 -4 9 -2 9 3 0 5 26
20 58 32 31 12 77 31 101 42 25 11 53 21 63 23 11 2 33 11 50 20 17 8 38 15
46 15 8 0 31 9 51 19 20 11 61 31 91 44 30 14 76 34 101 45 46 21 82 52 60 52
-6 0 -11 5 -11 10 0 14 16 12 33 -4 8 -8 18 -11 23 -6 5 5 61 30 124 56 63 25
140 57 170 70 52 21 77 29 143 41 19 4 26 10 23 19 -3 8 -1 14 3 14 5 0 11 -5
13 -10 2 -7 19 -5 48 6 25 9 57 16 71 15 15 -1 42 5 60 14 19 8 26 14 16 15
-9 0 -26 -6 -38 -13 -17 -10 -22 -9 -34 6 -9 13 -15 15 -20 7 -4 -7 -18 -10
-31 -7 -13 2 -24 0 -24 -4 0 -5 -4 -9 -10 -9 -5 0 -10 7 -10 15 0 8 5 15 10
15 6 0 10 4 10 9 0 18 -38 -1 -51 -25 -7 -14 -18 -23 -24 -20 -7 2 -26 -3 -44
-12 -28 -13 -34 -13 -42 -1 -7 11 -9 11 -9 -3 0 -25 -20 -32 -34 -12 -9 12
-15 14 -20 5 -5 -7 -16 -9 -29 -5 -20 6 -20 6 -4 -11 14 -13 15 -20 6 -31 -6
-8 -19 -14 -28 -14 -10 0 -12 3 -5 8 7 4 8 15 4 27 -7 18 -8 18 -15 -7 -6 -25
-16 -32 -37 -29 -4 0 -4 -7 -1 -17 6 -15 5 -16 -12 -2 -17 14 -18 13 -12 -2 4
-12 2 -15 -8 -11 -8 3 -12 9 -9 14 3 6 0 16 -6 24 -13 15 -4 39 11 30 5 -4 9
3 9 14 0 12 -4 21 -9 21 -15 0 -60 -62 -54 -76 2 -6 -9 -18 -25 -25 -19 -8
-28 -18 -24 -27 4 -12 1 -12 -17 -3 -17 10 -26 9 -44 -4 l-22 -16 28 7 c17 4
27 2 27 -5 0 -6 -7 -11 -15 -11 -8 0 -15 -5 -15 -10 0 -6 -7 -6 -19 1 -15 10
-25 7 -57 -17 -22 -16 -43 -34 -49 -41 -17 -20 -86 -54 -96 -47 -5 3 -16 0
-24 -6 -8 -6 -18 -9 -24 -6 -5 3 -11 3 -14 -1 -2 -5 -2 -2 0 5 1 8 3 21 3 30
0 13 2 14 9 4 5 -8 17 -12 27 -10 17 3 16 5 -6 25 -13 13 -20 26 -15 30 4 5
10 2 12 -4 3 -7 11 -13 19 -13 8 0 14 -4 14 -10 0 -5 4 -10 10 -10 16 0 7 46
-10 47 -8 1 -25 4 -37 8 -16 5 -22 2 -26 -12 -3 -12 -5 -9 -6 10 -1 20 4 27
17 27 10 0 22 -3 26 -7 11 -11 86 -11 86 -1 0 5 -3 7 -8 4 -4 -2 -16 2 -27 10
-16 12 -17 16 -6 23 8 5 20 7 27 4 14 -5 30 17 18 26 -15 10 -33 48 -27 55 3
3 13 0 21 -7 13 -10 15 -9 9 6 -4 10 -7 23 -7 28 0 6 -11 2 -24 -8 -13 -10
-21 -24 -19 -31 4 -8 0 -10 -11 -6 -21 8 -33 -23 -17 -47 9 -15 8 -19 -4 -19
-8 0 -15 9 -15 21 0 12 -4 17 -11 13 -6 -3 -9 -15 -6 -25 3 -11 1 -17 -3 -14
-5 3 -10 -1 -13 -7 -5 -16 -13 -10 -20 17 -5 16 7 30 61 70 37 27 79 62 95 78
33 35 76 40 92 12 12 -22 36 -32 32 -12 -1 6 -12 21 -24 32 l-22 20 23 22 c13
13 27 23 32 23 4 0 14 7 23 15 41 38 88 78 109 92 12 8 22 22 22 29 0 8 7 14
15 14 15 0 104 60 105 70 0 3 -33 4 -72 4 -40 -1 -76 3 -79 9 -4 5 -18 -8 -32
-29 -25 -40 -17 -56 19 -36 9 5 26 7 39 4 l24 -4 -26 -24 c-14 -13 -41 -26
-59 -30 -19 -3 -34 -10 -34 -14 0 -4 -7 -11 -16 -14 -8 -3 -12 -2 -9 4 10 16
-2 12 -21 -7 -9 -10 -22 -18 -28 -19 -6 0 -20 -2 -31 -3 -12 -1 -16 -4 -9 -9
6 -4 14 -17 18 -29 6 -18 4 -20 -14 -16 -11 3 -20 0 -20 -6 0 -6 -12 -11 -26
-11 -14 0 -23 -4 -19 -9 3 -5 0 -13 -6 -17 -6 -3 -15 -1 -19 6 -5 9 -9 9 -14
1 -5 -8 -13 -8 -27 -1 -17 9 -19 7 -19 -18 0 -22 -5 -28 -22 -29 -22 -2 -22
-1 -4 12 23 17 21 20 -19 29 -24 6 -28 5 -17 -5 16 -18 15 -29 -4 -29 -8 0
-12 5 -9 10 12 20 -9 9 -51 -26 -39 -32 -48 -34 -46 -13 1 4 -8 5 -18 2 -11
-3 -20 0 -20 6 0 6 5 11 11 11 5 0 7 5 4 10 -11 17 -35 11 -82 -20 -24 -16
-48 -30 -54 -30 -5 0 -9 -4 -9 -10 0 -5 -10 -10 -23 -10 -22 0 -77 -49 -77
-69 0 -6 -12 -11 -26 -11 -15 0 -23 -4 -19 -11 8 -12 -24 -51 -36 -43 -5 3
-12 -2 -15 -10 -8 -20 -34 -21 -34 -1 0 8 -4 15 -9 15 -6 0 -10 8 -10 18 -1
47 -14 82 -31 82 -16 0 -17 4 -9 35 17 61 -4 121 -51 149 -24 13 -33 14 -49 5
-15 -10 -28 -9 -64 5 -59 22 -83 48 -64 67 12 13 26 53 29 87 1 9 10 12 24 9
13 -2 25 -1 26 3 2 4 25 10 51 12 68 7 74 17 48 73 -12 26 -20 50 -17 52 7 8
-23 64 -45 86 -26 25 -86 23 -94 -3 -6 -20 14 -50 34 -50 13 0 31 -33 31 -58
0 -10 -9 -27 -20 -37 -18 -16 -22 -16 -60 -1 -22 9 -54 16 -71 16 -37 0 -50
-27 -23 -48 17 -13 15 -14 -26 -8 -24 4 -51 13 -60 20 -10 9 -45 14 -100 15
-46 1 -88 5 -92 9 -3 4 -8 25 -10 47 -4 48 -24 56 -74 29 -50 -27 -68 -12 -72
57 -2 47 1 58 21 78 16 14 23 29 20 42 -6 20 -10 22 -58 23 -28 1 -30 4 -33
43 -3 46 14 59 62 47 30 -7 29 -4 16 -41 -8 -23 -8 -25 2 -13 7 9 21 14 30 12
9 -2 21 6 27 17 19 34 42 51 70 51 34 0 46 13 56 60 4 19 12 41 17 47 18 23 0
40 -54 54 -60 15 -96 13 -118 -5 -32 -27 -51 -27 -78 3 -15 16 -34 27 -42 26
-104 -22 -121 -23 -150 -15 -21 6 -39 6 -51 0 -54 -30 -93 12 -70 76 7 20 11
37 9 40 -2 2 -53 -1 -112 -6 -79 -7 -114 -6 -130 2 -21 12 -84 28 -122 31 -11
1 -29 9 -39 17 -14 11 -19 12 -22 3 -5 -14 -79 -37 -92 -29 -22 14 -18 47 11
83 16 21 36 42 44 46 8 4 14 21 14 37 0 23 -5 30 -20 30 -11 0 -20 4 -20 9 0
5 -20 1 -45 -8 -25 -9 -45 -19 -45 -22 0 -4 11 -14 25 -23 50 -33 24 -86 -43
-86 -35 0 -49 15 -93 99 -18 35 -43 68 -56 74 -13 6 -26 22 -30 36 -3 13 -17
40 -30 59 -12 19 -23 41 -23 48 0 8 -4 14 -9 14 -10 0 -12 5 -46 95 -61 160
-75 194 -99 242 -15 29 -31 55 -36 58 -6 3 -10 15 -10 26 0 30 -28 52 -63 52
-18 -1 -46 3 -63 8 -26 8 -33 18 -48 67 -10 31 -26 72 -37 90 -10 18 -19 41
-19 51 0 10 -7 25 -16 32 -31 25 -62 86 -69 131 l-7 46 40 7 c22 3 56 3 75 0
32 -6 37 -5 41 16 3 13 8 38 11 54 20 95 21 88 -18 83 -33 -4 -38 -1 -54 32
-10 19 -21 37 -25 38 -5 2 -8 18 -8 36 0 39 -5 45 -31 39 -15 -4 -19 -14 -19
-48 0 -41 -11 -55 -42 -55 -11 0 -7 73 6 103 7 15 2 17 -48 17 l-56 0 0 -150z
m258 -687 c29 -26 74 -117 66 -136 -6 -17 -34 -24 -34 -9 0 18 -79 104 -90 97
-3 -2 -7 5 -7 16 -1 11 3 17 8 13 6 -3 13 3 16 15 7 26 15 26 41 4z m272 -683
c0 -5 -2 -10 -4 -10 -3 0 -8 5 -11 10 -3 6 -1 10 4 10 6 0 11 -4 11 -10z
m-172 -220 c4 -10 -10 -12 -58 -7 -35 4 -78 7 -96 7 -48 0 -42 15 13 32 42 13
50 13 92 -2 25 -10 47 -23 49 -30z m576 29 c26 -21 34 -53 16 -64 -15 -9 -77
14 -84 31 -7 20 10 54 28 54 7 0 25 -9 40 -21z m-304 -23 c50 -16 44 -18 -50
-16 -70 1 -100 7 -100 19 0 14 103 11 150 -3z m796 -97 c3 -6 2 -14 -3 -18
-15 -10 -23 -40 -12 -46 5 -4 7 -10 4 -15 -3 -5 3 -13 12 -19 10 -6 14 -11 8
-11 -5 0 -3 -5 5 -10 25 -16 -3 -32 -62 -36 -29 -2 -67 -6 -85 -9 -17 -3 -34
-2 -37 3 -3 5 -34 10 -69 11 -53 1 -69 -3 -93 -21 -25 -21 -63 -29 -186 -41
-19 -1 -25 -17 -8 -17 6 0 10 -4 10 -10 0 -5 -8 -10 -17 -10 -9 0 -27 -9 -39
-21 l-22 -21 -370 21 c-203 11 -376 23 -384 26 -29 11 -37 49 -26 123 8 56 15
72 32 82 17 9 109 9 379 3 347 -9 357 -10 380 -31 29 -27 52 -28 74 -2 15 17
30 20 91 20 54 0 83 5 114 21 59 30 122 22 160 -20 l27 -30 7 37 c4 20 9 40
11 45 7 11 91 8 99 -4z m103 -83 c14 -17 -5 -26 -52 -25 -18 0 -25 3 -17 6 8
4 21 12 28 20 17 17 27 17 41 -1z m191 -44 c0 -21 5 -43 12 -50 17 -17 1 -29
-44 -36 -45 -7 -48 4 -11 34 l28 22 -30 -7 c-17 -4 -37 -15 -46 -26 -16 -18
-17 -17 -23 13 -14 71 -11 77 47 81 28 2 55 4 60 5 4 1 7 -15 7 -36z m-405
-82 c8 -13 -3 -50 -15 -50 -12 0 -23 37 -15 50 3 5 10 10 15 10 5 0 12 -5 15
-10z m-1044 -205 c32 -58 36 -101 12 -127 -20 -22 -54 -23 -95 -2 -26 14 -29
19 -24 46 3 17 6 48 6 69 0 21 7 45 16 54 27 27 55 14 85 -40z m120 45 c27
-15 24 -48 -7 -62 -28 -13 -50 -5 -68 26 -9 13 -7 20 8 32 23 17 40 18 67 4z
m637 -24 c5 -23 -17 -66 -34 -66 -18 0 -28 58 -13 76 16 19 43 14 47 -10z
m-877 -174 c-10 -36 -26 -34 -27 3 -2 38 4 49 21 35 9 -7 11 -20 6 -38z m1509
-142 c9 -16 8 -20 -5 -20 -8 0 -15 9 -15 20 0 11 2 20 5 20 2 0 9 -9 15 -20z
m584 -76 c3 -9 6 -24 6 -35 0 -21 20 -25 37 -8 6 6 13 7 16 2 3 -5 -20 -28
-51 -51 -31 -24 -84 -68 -117 -99 -75 -69 -164 -138 -171 -130 -3 3 16 22 42
43 67 55 130 114 122 114 -4 0 3 10 16 23 15 15 25 41 30 77 4 30 12 60 18 67
15 18 45 16 52 -3z m861 -44 c4 -6 11 -8 16 -5 16 10 10 -5 -11 -27 -21 -23
-27 -22 -30 2 -5 37 10 55 25 30z m-124 -39 c22 -18 23 -21 7 -37 -18 -18 -38
-12 -38 12 0 11 -6 13 -22 8 -23 -7 -23 -6 -4 15 23 26 28 26 57 2z m69 -1 c0
-5 -2 -10 -4 -10 -3 0 -8 5 -11 10 -3 6 -1 10 4 10 6 0 11 -4 11 -10z m-83
-82 c-3 -8 -6 -5 -6 6 -1 11 2 17 5 13 3 -3 4 -12 1 -19z m48 12 c8 -13 -5
-13 -25 0 -13 8 -13 10 2 10 9 0 20 -4 23 -10z m-85 -4 c0 -3 -4 -8 -10 -11
-5 -3 -10 -1 -10 4 0 6 5 11 10 11 6 0 10 -2 10 -4z m280 -32 c0 -21 -17 -17
-23 5 -3 14 -1 18 9 14 8 -3 14 -11 14 -19z m-123 -36 c-2 -7 -12 -12 -21 -10
-9 2 -15 -2 -14 -8 2 -6 -12 -18 -31 -26 l-34 -14 37 35 c37 34 72 47 63 23z
m-491 -53 c14 -13 14 -15 1 -15 -9 0 -22 -3 -31 -6 -12 -4 -16 0 -16 15 0 25
25 28 46 6z m1810 -195 c8 0 14 -5 14 -11 0 -12 -40 -2 -55 14 -7 7 -4 8 8 3
10 -3 25 -6 33 -6z m-86 -49 c-5 -11 -15 -23 -20 -26 -6 -4 -7 -11 -4 -17 4
-6 2 -8 -4 -4 -6 3 -20 -6 -31 -20 -17 -21 -21 -23 -21 -9 0 9 17 35 39 56 42
43 57 50 41 20z m-2257 -38 c-24 -16 -32 -49 -10 -40 7 3 22 -2 32 -10 17 -13
17 -15 3 -10 -11 4 -18 1 -18 -7 0 -8 12 -13 30 -14 17 0 28 2 26 6 -2 4 22 5
55 4 67 -4 71 -22 5 -22 -24 0 -67 -5 -96 -10 -60 -11 -70 -8 -53 19 10 16 9
20 -6 24 -10 2 -26 0 -35 -5 -15 -9 -16 -7 -7 10 13 24 84 82 91 75 3 -3 -5
-12 -17 -20z m-215 -68 c-3 -3 -9 2 -12 12 -6 14 -5 15 5 6 7 -7 10 -15 7 -18z
m894 1 c-2 -5 2 -12 9 -16 7 -5 -3 -8 -24 -7 -20 0 -33 5 -30 10 3 5 -1 13 -8
18 -10 7 -3 9 21 7 19 -2 33 -7 32 -12z m118 -26 c0 -5 -4 -10 -10 -10 -5 0
-10 5 -10 10 0 6 5 10 10 10 6 0 10 -4 10 -10z m398 -12 c9 13 42 6 42 -9 0
-5 7 -9 15 -9 8 0 15 -7 15 -16 0 -9 5 -12 12 -8 7 4 8 3 4 -4 -10 -17 -36
-15 -36 3 0 21 -13 19 -30 -5 -8 -12 -26 -20 -42 -20 -15 0 -29 -4 -32 -9 -4
-5 4 -7 16 -5 15 3 9 -3 -14 -16 -42 -22 -50 -35 -17 -25 l21 7 -21 -21 c-24
-24 -33 -26 -30 -8 3 25 -1 38 -11 32 -6 -4 -8 -15 -5 -26 5 -15 3 -17 -11
-12 -13 5 -15 3 -9 -7 5 -9 4 -11 -4 -6 -6 4 -18 3 -26 -4 -10 -9 -16 -7 -23
6 -9 16 -10 15 -17 -5 -4 -14 -14 -21 -28 -20 -36 3 -57 0 -57 -10 0 -5 8 -8
18 -6 79 16 79 16 80 -18 0 -29 -1 -30 -9 -9 -9 23 -33 30 -44 12 -4 -6 -11
-7 -17 -4 -6 4 -9 1 -6 -6 2 -8 10 -16 18 -18 7 -3 10 0 6 7 -4 6 -5 11 -2 11
2 0 13 3 23 7 15 6 16 4 6 -9 -7 -8 -10 -18 -6 -21 3 -4 -1 -7 -10 -7 -9 0
-17 -6 -18 -12 0 -10 -2 -10 -6 0 -8 21 -21 13 -17 -10 2 -13 2 -17 -2 -10 -9
20 -21 14 -29 -15 -4 -16 -10 -22 -12 -15 -3 6 -13 12 -24 12 -14 0 -19 7 -19
25 0 14 -4 25 -9 25 -15 0 -43 -44 -31 -48 13 -5 13 -32 0 -32 -5 0 -10 6 -11
13 0 10 -2 10 -6 0 -2 -7 -9 -13 -15 -13 -6 0 -17 -8 -24 -17 -12 -17 -13 -17
-14 -1 0 9 -5 20 -12 24 -7 4 -8 3 -4 -4 4 -7 2 -12 -3 -12 -6 0 -11 -7 -11
-16 0 -10 -4 -12 -12 -7 -7 4 -20 8 -28 8 -8 0 -14 6 -12 13 1 6 -2 12 -8 12
-5 0 -10 -6 -10 -14 0 -18 -38 -28 -62 -15 -10 6 -18 6 -18 1 0 -5 14 -15 30
-22 17 -7 30 -17 30 -22 0 -6 -7 -4 -16 3 -9 7 -29 12 -45 11 -20 -2 -29 2
-29 13 0 8 -4 15 -10 15 -5 0 -10 6 -10 14 0 8 -5 16 -11 18 -8 3 -9 15 -4 38
7 32 8 33 23 14 9 -12 13 -13 10 -4 -7 19 38 44 47 26 3 -8 7 -7 11 2 4 9 10
10 19 2 9 -8 14 -6 19 6 3 9 12 14 20 11 8 -3 17 -3 21 1 4 4 10 7 13 8 4 0
27 6 52 14 42 12 67 18 97 22 7 1 14 7 17 15 3 7 15 13 26 13 11 0 20 5 20 10
0 6 6 10 14 10 8 0 37 11 65 26 28 14 55 23 60 19 6 -3 13 1 18 8 4 8 38 29
75 46 51 25 66 36 61 49 -4 15 -3 15 6 2 9 -12 13 -12 19 -2z m1097 -9 c16
-16 -29 -9 -50 8 -19 15 -19 15 10 8 17 -3 34 -11 40 -16z m-1710 1 c3 -6 -1
-7 -9 -4 -18 7 -21 14 -7 14 6 0 13 -4 16 -10z m115 -5 c0 -8 -4 -15 -10 -15
-5 0 -10 7 -10 15 0 8 5 15 10 15 6 0 10 -7 10 -15z m90 0 c0 -2 -7 -5 -15 -9
-9 -3 -15 0 -15 9 0 9 6 12 15 9 8 -4 15 -7 15 -9z m-150 -13 c0 -4 -9 -8 -20
-9 -11 -1 -20 2 -20 8 0 5 9 9 20 9 11 0 20 -4 20 -8z m-152 -22 c-7 -10 -14
-17 -17 -15 -4 4 18 35 25 35 2 0 -1 -9 -8 -20z m762 -21 c0 -5 -7 -9 -15 -9
-15 0 -20 12 -9 23 8 8 24 -1 24 -14z m-580 -19 c0 -5 -2 -10 -4 -10 -3 0 -8
5 -11 10 -3 6 -1 10 4 10 6 0 11 -4 11 -10z m1890 -168 c73 -41 142 -102 193
-168 26 -33 47 -65 47 -69 0 -4 -16 13 -35 37 -42 56 -126 130 -174 155 -20
10 -54 30 -76 44 -22 15 -49 29 -60 32 -11 4 -2 4 20 1 22 -3 60 -17 85 -32z
m-2107 -49 c-1 -6 7 -19 17 -28 11 -10 20 -23 20 -29 0 -6 -7 -3 -15 8 -13 18
-41 14 -30 -5 3 -5 -1 -6 -9 -3 -11 4 -16 0 -17 -12 0 -17 -1 -17 -8 1 -6 15
-3 22 10 27 16 6 17 12 9 33 -9 23 -8 26 7 23 10 -2 17 -9 16 -15z m-115 -11
c-10 -2 -18 -11 -18 -19 0 -18 -15 -8 -15 10 0 15 26 27 40 18 6 -3 2 -7 -7
-9z m496 2 c3 -8 2 -12 -4 -9 -6 3 -10 10 -10 16 0 14 7 11 14 -7z m-414 -7
c0 -15 -30 -19 -44 -4 -13 12 -11 14 15 13 16 -1 29 -5 29 -9z m45 -73 c-9 -9
-19 -13 -23 -10 -3 4 0 11 8 16 24 15 33 11 15 -6z m2365 -135 c0 -6 -4 -7
-10 -4 -5 3 -10 11 -10 16 0 6 5 7 10 4 6 -3 10 -11 10 -16z m-2350 -79 c0 -5
-8 -10 -17 -10 -10 0 -28 -3 -40 -6 -17 -5 -23 -2 -23 10 0 12 10 16 40 16 22
0 40 -4 40 -10z m460 -214 c0 -11 -19 -15 -25 -6 -3 5 1 10 9 10 9 0 16 -2 16
-4z m-402 -86 c12 0 22 -4 22 -9 0 -14 -39 -20 -47 -8 -4 7 -12 -5 -19 -28 -8
-29 -16 -39 -28 -37 -13 2 -15 -2 -10 -24 l7 -26 -26 22 c-15 13 -24 27 -21
31 2 4 0 10 -6 14 -5 3 -10 1 -10 -4 0 -6 -4 -11 -9 -11 -5 0 -4 14 2 30 12
31 27 40 27 16 0 -8 5 -18 12 -22 8 -5 9 0 6 14 -4 14 -2 20 5 15 6 -4 8 2 4
17 -5 21 -3 22 31 16 20 -3 47 -6 60 -6z m537 -80 c-4 -6 -12 -5 -21 5 -9 8
-12 19 -9 25 4 6 12 5 21 -5 9 -8 12 -19 9 -25z m505 -40 c0 -5 -5 -10 -11
-10 -5 0 -7 5 -4 10 3 6 8 10 11 10 2 0 4 -4 4 -10z"/>
<path d="M3060 1710 c0 -12 28 -21 35 -11 2 5 -4 11 -15 14 -11 3 -20 2 -20
-3z"/>
<path d="M2910 1630 c0 -5 5 -10 11 -10 5 0 7 5 4 10 -3 6 -8 10 -11 10 -2 0
-4 -4 -4 -10z"/>
<path d="M2956 1602 c-3 -5 1 -9 9 -9 8 0 12 4 9 9 -3 4 -7 8 -9 8 -2 0 -6 -4
-9 -8z"/>
<path d="M2913 1589 c9 -6 15 -14 12 -20 -4 -5 -3 -14 1 -20 4 -8 9 -7 14 2
10 16 -10 49 -30 49 -12 -1 -11 -3 3 -11z"/>
<path d="M2605 1550 c3 -5 8 -10 11 -10 2 0 4 5 4 10 0 6 -5 10 -11 10 -5 0
-7 -4 -4 -10z"/>
<path d="M2660 1544 c0 -8 5 -12 10 -9 6 4 8 11 5 16 -9 14 -15 11 -15 -7z"/>
<path d="M2723 1532 c-13 -2 -23 -8 -23 -13 0 -11 17 -11 44 0 24 9 9 18 -21
13z"/>
<path d="M2537 923 c-4 -3 -7 -11 -7 -17 0 -6 5 -5 12 2 6 6 9 14 7 17 -3 3
-9 2 -12 -2z"/>
<path d="M1059 5113 c0 -5 -2 -18 -5 -30 -3 -17 0 -21 11 -17 8 4 13 10 10 14
-3 5 -1 11 5 15 5 3 10 10 10 16 0 11 -30 13 -31 2z"/>
<path d="M1860 5104 c0 -9 10 -32 22 -52 17 -28 19 -38 10 -53 -7 -10 -12 -25
-12 -32 0 -8 -8 -21 -18 -30 -22 -21 -97 -33 -106 -18 -8 13 -76 15 -76 3 0
-4 15 -23 34 -41 32 -31 36 -33 70 -21 45 14 64 8 108 -34 37 -36 57 -41 196
-52 67 -6 72 -5 72 14 0 38 63 40 73 2 5 -20 79 -37 115 -26 26 8 37 35 17 41
-8 3 -22 7 -30 10 -8 2 -15 15 -15 29 0 14 -9 30 -22 38 -31 20 -105 29 -121
15 -17 -17 -46 -20 -61 -7 -8 5 -51 15 -97 21 -87 11 -109 20 -109 48 0 43 43
52 111 22 l44 -19 70 24 c75 25 115 30 115 14 0 -6 20 -8 54 -4 53 6 56 5 85
-27 17 -18 31 -37 31 -42 0 -5 9 -20 20 -34 11 -14 20 -34 20 -45 0 -10 19
-36 41 -57 38 -35 44 -37 70 -28 24 10 32 8 53 -12 13 -13 30 -20 36 -16 6 4
24 2 40 -5 20 -8 34 -9 48 -1 15 8 28 8 49 -1 41 -16 76 -21 68 -8 -3 5 0 10
8 10 8 0 17 13 20 29 8 38 36 48 58 20 10 -13 21 -19 29 -14 7 4 15 2 19 -4
12 -19 122 6 148 34 28 30 77 39 152 31 50 -6 60 -4 76 14 10 11 32 20 49 21
17 1 42 4 56 9 l25 7 -28 12 c-16 6 -36 11 -45 11 -31 1 -104 45 -120 72 -19
32 -17 35 23 41 24 3 31 9 33 31 6 46 -62 100 -83 67 -12 -20 -64 -23 -94 -5
-27 16 -37 17 -95 5 -47 -9 -69 -10 -84 -2 -12 6 -68 11 -126 11 -105 0 -106
0 -106 -24 0 -35 -25 -52 -55 -38 -14 7 -25 16 -25 22 0 5 -13 16 -30 25 -38
20 -332 23 -312 3 17 -17 15 -45 -4 -52 -9 -3 -48 -6 -89 -6 -52 0 -76 4 -85
15 -7 8 -30 20 -51 25 -22 6 -39 15 -39 20 0 6 -4 10 -9 10 -14 0 -20 -39 -7
-43 18 -7 1 -17 -38 -24 -42 -7 -80 19 -73 49 5 16 -2 18 -49 18 -43 0 -54 -3
-54 -16z m1271 -74 c16 0 20 -6 17 -26 -4 -38 -30 -51 -68 -37 -29 11 -64 7
-219 -23 -19 -4 -22 -9 -16 -27 4 -12 8 -37 9 -55 3 -29 0 -33 -36 -44 -35
-10 -40 -9 -59 10 -11 12 -17 22 -13 22 4 0 -12 18 -37 40 -24 22 -52 40 -61
40 -30 0 -48 -12 -48 -32 0 -12 4 -16 11 -12 7 4 10 1 7 -6 -7 -22 -26 -22
-33 -1 -3 12 -3 30 0 42 8 24 96 83 140 93 64 16 106 18 120 6 9 -8 53 -12
122 -12 93 0 108 2 111 17 2 10 10 14 19 11 8 -3 24 -6 34 -6z"/>
<path d="M4088 5113 c7 -3 16 -2 19 1 4 3 -2 6 -13 5 -11 0 -14 -3 -6 -6z"/>
<path d="M4511 5103 c3 -36 -2 -42 -38 -49 -21 -4 -44 -15 -51 -26 -19 -27
-88 -25 -102 3 -11 19 -13 20 -30 4 -10 -9 -24 -30 -31 -46 -10 -26 -17 -30
-45 -27 -19 1 -39 -3 -46 -10 -6 -6 -25 -12 -40 -12 -21 0 -31 6 -38 25 -11
29 -31 32 -65 9 -28 -18 -45 -12 -45 19 0 16 3 18 12 9 14 -14 48 -16 48 -3 0
18 -30 33 -56 27 -19 -5 -33 0 -55 19 -17 14 -37 25 -44 25 -7 0 -15 4 -17 9
-1 4 -24 11 -50 15 -43 6 -48 5 -76 -25 -29 -31 -31 -32 -55 -16 -14 9 -28 26
-32 37 -5 15 -12 19 -23 15 -10 -4 -25 -10 -34 -12 -40 -12 -2 -90 46 -95 22
-2 37 -13 54 -38 13 -20 32 -36 45 -36 27 -2 67 -48 67 -78 0 -28 16 -36 76
-36 38 0 50 -5 77 -34 54 -58 141 -55 171 6 8 16 20 22 36 21 43 -3 124 -25
140 -38 8 -7 31 -15 51 -19 56 -10 67 -30 63 -111 -2 -38 -4 -90 -3 -113 0
-24 -5 -49 -10 -56 -7 -9 -5 -23 9 -48 16 -30 19 -60 21 -193 l2 -157 36 -34
c41 -39 44 -40 61 -19 22 27 89 14 115 -22 11 -15 65 -9 65 8 0 5 16 15 35 23
41 18 44 34 10 66 -27 25 -32 59 -13 78 15 15 48 16 48 1 0 -8 4 -8 13 -2 6 6
27 13 44 16 27 5 36 2 48 -17 19 -28 10 -57 -29 -99 -22 -24 -29 -27 -41 -17
-11 9 -15 9 -15 1 0 -6 5 -11 10 -11 6 0 10 -10 10 -22 0 -21 0 -21 20 -3 19
17 26 18 79 7 52 -11 62 -10 89 5 26 15 36 16 61 6 l31 -11 0 94 0 95 -25 -18
c-19 -14 -24 -27 -25 -60 0 -39 -2 -43 -25 -43 -19 0 -28 8 -39 35 -8 19 -22
35 -31 35 -19 0 -92 36 -97 48 -1 5 -16 15 -33 23 -16 8 -34 24 -40 37 -6 14
-18 22 -35 22 -48 0 -62 20 -68 98 -5 80 10 112 54 112 20 0 104 -80 104 -100
0 -4 16 -20 35 -35 l36 -27 19 25 c28 36 82 43 126 18 19 -12 37 -21 40 -21 2
0 4 20 4 45 l0 45 -57 0 c-32 0 -68 3 -81 6 -16 5 -22 3 -20 -7 2 -10 -8 -14
-32 -14 -28 0 -36 4 -38 21 -4 30 24 51 49 36 26 -16 29 -15 26 10 -2 18 5 23
37 30 22 5 45 13 53 20 7 6 23 11 36 12 21 1 22 6 22 71 l0 70 -70 3 c-38 1
-84 0 -102 -3 -32 -6 -32 -6 -16 -34 20 -33 12 -61 -18 -61 -13 0 -23 -8 -26
-20 -8 -31 -70 -17 -105 23 -16 17 -28 35 -28 39 0 4 -8 8 -18 8 -27 0 -45 45
-48 120 -2 36 -6 82 -10 103 -4 26 -1 44 10 61 9 15 15 44 15 75 -2 47 16 84
38 80 19 -3 33 2 33 11 0 6 -19 10 -42 10 -29 0 -49 -7 -66 -22 l-24 -23 -18
23 c-24 29 -112 33 -109 5z m-181 -106 c0 -19 -10 -27 -26 -20 -10 4 -11 8 -1
19 15 17 27 18 27 1z m-362 -60 c2 -12 -1 -15 -12 -11 -19 7 -22 38 -3 32 6
-3 13 -12 15 -21z m490 11 c23 -23 14 -55 -21 -76 -40 -23 -134 -34 -159 -18
-14 9 -21 6 -33 -12 -21 -29 -47 -28 -82 2 -27 24 -28 24 -9 45 26 29 80 28
100 -1 l16 -22 0 22 c0 14 8 26 24 31 13 5 26 17 29 25 8 20 116 23 135 4z
m-384 -55 c-21 -15 -59 -14 -59 2 0 6 11 12 25 13 14 2 29 8 35 13 6 6 11 5
14 -2 2 -7 -5 -18 -15 -26z m-83 -3 c25 -14 25 -46 0 -60 -26 -14 -48 -4 -55
26 -11 42 12 56 55 34z"/>
<path d="M1195 5050 c-7 -12 0 -26 37 -69 25 -29 62 -46 41 -18 -5 6 -10 28
-12 47 -2 19 -5 38 -8 43 -6 10 -51 9 -58 -3z"/>
<path d="M1745 5050 c-3 -5 -2 -10 4 -10 5 0 13 5 16 10 3 6 2 10 -4 10 -5 0
-13 -4 -16 -10z"/>
<path d="M4909 4978 c-25 -20 -31 -48 -13 -55 22 -8 36 10 32 41 -3 24 -5 25
-19 14z"/>
<path d="M1355 4960 c-7 -12 -7 -12 23 -15 25 -3 30 10 6 19 -21 8 -22 8 -29
-4z"/>
<path d="M1620 4940 c0 -11 1 -20 3 -20 1 0 10 9 20 20 16 19 16 20 -3 20 -13
0 -20 -7 -20 -20z"/>
<path d="M1561 4838 c-18 -14 -21 -22 -13 -30 15 -15 62 5 62 26 0 23 -24 25
-49 4z"/>
<path d="M1298 4788 c-20 -11 -39 -30 -42 -42 -4 -18 -2 -17 19 7 15 17 36 29
54 30 18 1 27 7 24 15 -7 16 -12 15 -55 -10z"/>
<path d="M3665 4800 c3 -5 18 -10 33 -10 21 0 24 2 12 10 -20 13 -53 13 -45 0z"/>
<path d="M612 4745 c-15 -33 -71 -35 -90 -4 -20 31 -31 12 -34 -58 -4 -85 11
-98 57 -53 19 19 35 40 35 47 0 23 39 53 69 53 29 0 57 21 44 33 -3 4 -21 7
-38 7 -24 0 -35 -6 -43 -25z"/>
<path d="M3343 4750 c41 -32 34 -41 -30 -39 -32 1 -65 -1 -74 -5 -10 -4 -20
-3 -24 3 -14 24 -107 7 -127 -23 -6 -8 -10 -8 -16 1 -15 24 -79 26 -141 4 -34
-12 -73 -21 -89 -22 -15 0 -21 -3 -14 -6 22 -9 12 -23 -15 -21 -81 5 -208 -65
-337 -186 -44 -42 -70 -58 -63 -38 4 13 -7 14 -36 3 -16 -6 -35 -11 -43 -11
-8 0 -14 -10 -14 -25 0 -21 -5 -25 -28 -25 -16 0 -37 9 -47 20 -10 11 -31 20
-47 20 -16 0 -39 5 -50 11 -15 8 -22 8 -27 0 -11 -18 -71 -1 -88 25 -20 31
-10 56 37 97 37 31 38 34 19 45 -16 10 -24 9 -48 -9 -16 -12 -34 -19 -39 -15
-11 6 -26 -21 -23 -41 1 -7 -11 -15 -26 -19 -55 -12 -63 -16 -58 -25 3 -5 16
-7 28 -5 15 2 33 -8 60 -36 42 -45 43 -49 20 -70 -41 -35 -79 -31 -127 14 -11
10 -31 21 -44 25 -20 5 -22 10 -16 37 9 41 12 46 28 40 8 -3 17 -1 21 5 3 6
-1 11 -10 11 -24 0 -12 24 13 28 12 2 22 7 22 12 0 5 3 16 7 26 4 11 3 15 -5
10 -15 -9 -52 29 -52 54 0 19 -52 55 -63 44 -3 -3 -21 -9 -40 -14 -27 -6 -34
-4 -31 5 8 19 -94 -2 -129 -27 -21 -15 -37 -18 -60 -14 -46 9 -100 7 -112 -5
-7 -7 -2 -10 15 -9 49 4 70 0 70 -14 0 -35 -81 -69 -168 -71 -67 -2 -86 -12
-76 -38 4 -11 18 -17 40 -17 24 0 34 -5 34 -15 0 -8 -4 -15 -10 -15 -12 0 -24
-63 -16 -88 5 -15 18 -21 46 -24 22 -2 40 0 40 4 0 8 -16 12 -33 9 -11 -2 9
33 28 49 20 17 64 17 93 1 l24 -13 -23 -24 c-12 -13 -29 -24 -38 -24 -11 0
-10 -5 7 -20 37 -35 100 -63 133 -58 25 4 33 0 45 -24 8 -15 12 -28 8 -28 -4
0 -1 -6 5 -13 6 -8 8 -16 6 -19 -3 -3 22 -35 55 -72 49 -54 60 -73 60 -101 0
-19 5 -35 10 -35 6 0 10 8 10 18 0 11 9 27 20 37 16 15 25 16 44 7 13 -6 27
-20 31 -31 6 -20 6 -20 26 0 37 37 89 17 104 -42 5 -21 1 -31 -21 -48 -51 -40
-104 -21 -104 39 l0 21 -22 -21 c-12 -11 -26 -20 -30 -20 -5 0 -7 -4 -3 -9 3
-6 -2 -14 -11 -19 -17 -9 -28 -7 -115 21 -42 14 -50 14 -75 0 -40 -21 -90 -18
-154 7 -52 20 -55 20 -67 4 -18 -25 -16 -37 11 -63 18 -17 30 -20 51 -15 15 4
52 1 84 -6 31 -6 66 -14 79 -16 15 -3 22 -11 22 -28 0 -14 6 -31 13 -38 7 -7
21 -24 30 -38 9 -14 17 -18 17 -10 0 7 17 29 38 48 57 53 140 66 229 36 36
-12 51 -14 65 -5 43 27 48 17 48 -87 l0 -98 -32 -11 c-19 -6 -84 -10 -151 -9
-88 1 -121 -1 -129 -11 -12 -15 -13 -14 27 -33 17 -8 45 -13 63 -11 17 1 56
-5 85 -15 28 -10 65 -17 80 -16 50 4 63 -12 97 -118 30 -91 50 -125 50 -85 0
13 4 14 23 3 12 -7 25 -13 30 -14 4 -1 10 -3 15 -4 4 -1 10 -2 15 -1 4 0 6 -2
6 -6 -4 -23 3 -41 25 -65 14 -14 22 -29 19 -32 -4 -3 -1 -6 7 -6 10 0 10 -3 0
-15 -10 -12 -10 -15 0 -15 7 0 34 -24 61 -52 53 -59 49 -61 64 34 4 26 10 35
22 34 9 -2 19 -8 21 -15 3 -9 7 -9 18 0 9 7 14 8 14 1 0 -7 32 -9 90 -7 66 3
94 0 103 -10 14 -14 130 -15 144 -2 3 4 13 -2 21 -14 9 -13 18 -17 25 -11 7 5
23 9 36 10 13 0 27 6 32 13 4 8 16 9 35 4 16 -5 33 -9 38 -9 5 -1 12 -8 15
-16 14 -35 44 -69 70 -80 31 -12 68 -82 73 -135 4 -39 30 -40 81 -2 24 19 37
24 37 15 0 -8 -5 -19 -12 -26 -9 -9 -9 -12 0 -12 7 0 17 11 22 25 5 14 14 25
19 25 13 0 41 76 43 116 1 19 5 34 9 34 5 0 13 17 19 38 7 20 18 46 26 56 14
20 14 19 42 -1 24 -18 52 -27 117 -37 13 -2 22 -13 25 -32 3 -16 9 -28 13 -26
18 6 37 1 37 -10 0 -6 7 -19 16 -29 9 -10 16 -32 17 -51 2 -32 4 -33 47 -36
62 -3 107 25 116 73 6 33 4 55 -11 116 -5 19 -2 28 9 32 40 16 61 -113 30
-179 -13 -27 -26 -37 -63 -48 -34 -10 -47 -19 -49 -34 -4 -27 11 -28 46 -4 15
9 36 22 47 28 11 6 35 40 54 75 32 61 33 68 28 144 -3 44 -1 89 3 100 7 18 10
15 25 -20 23 -54 17 -164 -14 -222 -12 -24 -19 -43 -17 -43 3 0 28 9 56 20 28
11 62 20 76 20 14 0 38 7 55 15 16 9 44 15 62 13 18 -1 38 2 45 6 7 4 12 3 12
-3 0 -5 3 -16 6 -24 3 -10 -2 -18 -15 -22 -12 -3 -26 -15 -31 -26 -14 -25 -6
-24 20 3 13 14 33 22 52 23 23 0 34 5 38 20 3 11 14 36 25 55 17 31 20 33 23
13 6 -38 27 -47 45 -19 15 22 16 45 7 125 0 3 -7 -4 -16 -15 -15 -18 -15 -18
-9 11 3 17 8 47 11 67 4 21 10 35 14 33 4 -3 11 28 14 68 6 56 4 79 -8 102
-20 38 -20 65 0 65 9 0 12 5 8 12 -4 7 -7 41 -7 77 2 66 -9 111 -26 111 -6 0
-6 -12 0 -32 14 -50 11 -66 -7 -33 -17 32 -37 57 -33 40 4 -19 -14 -135 -21
-135 -11 0 -20 54 -9 58 10 4 12 46 3 91 -7 32 -24 43 -24 14 0 -9 -3 -13 -7
-10 -3 4 -1 18 7 31 7 14 10 32 6 42 -6 16 -8 16 -21 -2 -13 -18 -14 -18 -24
9 -11 28 -26 36 -33 16 -2 -6 -4 8 -5 30 -1 23 2 39 7 36 5 -3 10 0 13 7 2 7
3 5 2 -4 -2 -10 1 -21 6 -24 5 -3 9 -14 9 -25 0 -10 6 -19 14 -19 24 0 30 22
11 36 -16 12 -16 14 -2 20 13 4 14 11 6 32 -5 14 -8 31 -5 39 5 12 2 15 -26
17 -25 2 -40 37 -39 96 0 33 3 65 7 71 3 6 -5 23 -19 37 -13 15 -30 38 -37 50
-14 29 -51 72 -60 72 -6 0 -7 -20 -1 -53 0 -5 6 -5 13 -1 7 5 9 2 5 -9 -3 -9
4 -25 19 -41 17 -17 24 -31 20 -44 -4 -11 0 -24 9 -32 10 -8 13 -20 9 -33 -5
-15 -3 -19 9 -14 12 5 14 1 8 -21 -5 -15 -6 -33 -4 -39 3 -7 0 -13 -6 -13 -5
0 -13 21 -17 46 -3 25 -17 57 -29 72 -12 15 -27 37 -34 50 -7 12 -16 20 -20
17 -9 -5 -38 63 -51 119 -4 17 -15 48 -24 68 -14 33 -14 37 -1 32 11 -5 13 -2
9 10 -4 10 -13 15 -21 11 -11 -4 -13 -1 -9 11 4 10 -6 28 -26 49 -18 18 -52
54 -74 81 -33 38 -54 53 -96 67 -71 22 -77 22 -70 -5 5 -21 4 -22 -11 -9 -10
7 -23 25 -30 39 -15 31 -162 122 -197 122 -22 -1 -23 -2 -7 -11 9 -5 17 -14
17 -19 0 -19 -41 -10 -64 13 -13 13 -29 21 -36 19 -7 -3 -16 2 -21 9 -6 10 -9
10 -9 2 0 -8 -13 -5 -37 8 l-38 21 28 -22z m230 -74 c4 -10 1 -13 -9 -9 -15 6
-19 23 -5 23 5 0 11 -7 14 -14z m-1883 -48 c0 -13 -23 -5 -28 10 -2 7 2 10 12
6 9 -3 16 -11 16 -16z m-136 -160 c-3 -35 -4 -38 -17 -38 -8 0 -24 9 -36 19
-21 18 -21 20 -4 30 26 16 58 9 57 -11z m210 -60 c28 -40 20 -52 -54 -75 -57
-18 -75 -20 -95 -11 -14 6 -25 14 -25 18 0 11 33 37 58 44 13 5 22 15 22 27 0
29 73 27 94 -3z m2074 -13 c-3 -3 -9 2 -12 12 -6 14 -5 15 5 6 7 -7 10 -15 7
-18z m-1652 -32 c25 -25 26 -27 8 -40 -35 -25 -87 -6 -82 30 6 44 36 48 74 10z
m1672 -18 c-3 -3 -9 2 -12 12 -6 14 -5 15 5 6 7 -7 10 -15 7 -18z m-1515 -14
c-3 -11 -15 -29 -28 -41 -19 -18 -27 -20 -44 -11 -20 11 -29 50 -14 64 3 4 25
7 49 7 37 0 41 -3 37 -19z m-184 -298 l-10 -31 -22 21 -22 22 30 11 c17 6 31
10 33 9 1 -1 -3 -16 -9 -32z m1823 -75 c-9 -9 -12 -7 -12 12 0 19 3 21 12 12
9 -9 9 -15 0 -24z m-1902 -17 c0 -19 -25 -35 -40 -26 -13 8 -1 33 18 38 10 3
18 5 20 6 1 0 2 -8 2 -18z m1910 -9 c0 -5 -7 -17 -15 -28 -14 -19 -14 -19 -15
2 0 11 3 24 7 27 9 10 23 9 23 -1z m280 -43 c0 -6 -4 -7 -10 -4 -5 3 -10 11
-10 16 0 6 5 7 10 4 6 -3 10 -11 10 -16z m-324 -80 c-11 -24 -15 -28 -15 -14
-1 34 11 67 21 57 5 -5 2 -23 -6 -43z m374 -310 c0 -5 5 -7 10 -4 17 11 11
-15 -11 -46 -11 -16 -28 -29 -36 -29 -14 0 -13 3 3 22 19 21 19 21 -3 16 -31
-8 -29 0 2 12 16 6 23 14 19 25 -3 8 -1 15 5 15 6 0 11 -5 11 -11z m-124 -123
c-24 -44 -46 -77 -94 -134 l-22 -27 12 30 c7 17 24 46 38 65 14 19 38 55 54
78 36 56 44 48 12 -12z m154 -14 c-4 -23 -18 -52 -31 -65 -13 -13 -30 -32 -37
-43 -12 -18 -12 -17 -7 6 11 44 13 55 15 58 2 1 3 5 4 10 1 4 12 23 24 42 12
19 22 42 22 50 1 13 2 13 9 0 5 -8 6 -34 1 -58z m44 -11 c-2 -2 -4 1 -4 8 0 7
-4 10 -8 7 -5 -3 -6 9 -3 27 l5 32 7 -35 c4 -19 6 -37 3 -39z m26 -42 c0 -28
-2 -30 -17 -18 -15 12 -16 12 -10 -4 3 -9 4 -30 1 -46 -5 -22 -10 -27 -25 -24
-24 7 -24 4 8 69 30 61 43 68 43 23z m-180 -29 c0 -5 -5 -10 -11 -10 -5 0 -7
5 -4 10 3 6 8 10 11 10 2 0 4 -4 4 -10z m75 -69 c-3 -6 -11 -11 -17 -11 -6 0
-6 6 2 15 14 17 26 13 15 -4z m-614 -103 c42 -34 86 -95 75 -105 -4 -4 -19 7
-35 24 -15 17 -37 34 -48 37 -12 4 -23 14 -26 24 -3 9 -8 25 -12 35 -10 25 1
21 46 -15z"/>
<path d="M3458 4733 c7 -3 16 -2 19 1 4 3 -2 6 -13 5 -11 0 -14 -3 -6 -6z"/>
<path d="M3784 4682 c-6 -4 -14 -17 -18 -29 -7 -21 -4 -23 24 -23 36 0 49 22
27 45 -18 17 -18 17 -33 7z"/>
<path d="M4009 4666 c-2 -2 -31 -6 -64 -9 -33 -3 -61 -6 -62 -6 -12 -3 2 -20
23 -30 20 -9 30 -9 40 0 8 6 25 8 39 5 14 -4 25 -2 25 3 0 6 12 6 32 0 20 -5
36 -5 42 1 5 5 -1 11 -18 16 -14 3 -26 10 -26 15 0 9 -23 13 -31 5z"/>
<path d="M0 4603 c0 -31 4 -43 14 -43 25 0 27 18 6 52 l-20 33 0 -42z"/>
<path d="M2160 4560 c-12 -8 -11 -10 8 -10 12 0 22 5 22 10 0 13 -11 13 -30 0z"/>
<path d="M38 4549 c-4 -9 -1 -28 6 -41 9 -18 10 -31 3 -43 -7 -13 -6 -16 2
-11 6 4 11 1 11 -8 0 -17 54 -76 70 -76 5 0 10 3 10 6 0 14 -33 74 -41 74 -4
0 -14 18 -20 40 -7 22 -16 40 -20 40 -4 0 -9 8 -11 18 -3 15 -4 15 -10 1z"/>
<path d="M1918 4553 c7 -3 16 -2 19 1 4 3 -2 6 -13 5 -11 0 -14 -3 -6 -6z"/>
<path d="M4230 4520 c0 -5 4 -10 9 -10 6 0 13 5 16 10 3 6 -1 10 -9 10 -9 0
-16 -4 -16 -10z"/>
<path d="M4070 4350 c0 -6 6 -13 14 -16 8 -3 12 -12 10 -19 -3 -7 -1 -16 5
-20 7 -4 8 1 4 12 -6 16 -5 17 13 3 10 -8 22 -19 25 -24 9 -11 22 11 14 24 -4
6 -11 8 -16 5 -5 -4 -20 5 -34 19 -28 28 -35 31 -35 16z"/>
<path d="M4075 4250 c3 -5 8 -10 11 -10 2 0 4 5 4 10 0 6 -5 10 -11 10 -5 0
-7 -4 -4 -10z"/>
<path d="M4167 4235 c3 -9 8 -13 11 -11 3 3 12 0 21 -6 10 -8 9 -4 -3 10 -22
25 -38 29 -29 7z"/>
<path d="M775 4230 l-70 -5 69 -7 c38 -4 74 -12 80 -18 7 -7 5 -10 -6 -10 -19
0 -32 -16 -23 -29 3 -6 17 -4 33 5 15 7 32 14 38 14 6 0 16 11 22 24 10 23 9
24 -31 28 -23 1 -73 1 -112 -2z"/>
<path d="M1083 4215 c-29 -20 -20 -40 28 -67 21 -12 39 -27 39 -34 0 -22 18
-25 44 -9 17 12 39 14 82 10 63 -6 100 -24 114 -58 8 -20 9 -20 10 8 0 17 7
41 15 55 14 25 21 95 7 74 -9 -15 -72 -5 -79 12 -7 20 -37 17 -64 -4 -22 -19
-23 -18 -63 4 -47 27 -102 31 -133 9z"/>
<path d="M720 4170 c-8 -5 -12 -12 -9 -15 4 -3 12 1 19 10 14 17 11 19 -10 5z"/>
<path d="M1508 4147 c-13 -10 -15 -23 -11 -58 3 -24 10 -50 15 -56 6 -7 7 -28
4 -47 -8 -44 14 -58 82 -54 37 2 48 7 49 20 1 9 -7 20 -18 23 -32 10 -52 50
-45 88 9 47 -10 97 -37 97 -12 0 -30 -6 -39 -13z"/>
<path d="M1261 4048 c-10 -25 1 -44 18 -34 14 9 14 43 1 51 -6 3 -14 -4 -19
-17z"/>
<path d="M4270 4060 c-11 -7 -11 -11 -2 -23 7 -8 12 -19 11 -23 -1 -5 -1 -24
0 -41 1 -38 24 -45 41 -13 12 22 -2 60 -21 60 -6 0 -8 9 -4 19 7 23 -5 33 -25
21z"/>
<path d="M1103 3804 c-7 -3 -10 -11 -7 -19 4 -10 12 -10 35 -2 16 6 29 15 29
19 0 9 -37 10 -57 2z"/>
<path d="M4483 3751 c4 -17 9 -61 11 -98 l6 -68 -14 45 c-8 25 -17 62 -21 84
-3 21 -8 36 -10 34 -3 -2 1 -33 7 -69 6 -35 12 -79 12 -98 1 -32 3 -34 40 -38
22 -2 52 -11 68 -21 23 -13 32 -14 46 -4 9 7 26 16 37 21 11 5 31 23 44 41 22
31 25 32 74 26 28 -4 63 -16 78 -27 30 -21 49 -25 49 -9 0 6 7 10 15 10 8 0
15 -4 15 -10 0 -10 80 -60 98 -60 6 0 14 9 17 20 4 13 18 23 36 27 24 5 29 10
29 35 0 18 -6 31 -17 35 -10 4 -21 11 -25 17 -4 6 -14 4 -26 -7 -10 -9 -27
-17 -38 -17 -27 0 -114 28 -130 41 -7 6 -18 8 -25 4 -11 -7 -84 11 -104 26 -6
5 -38 6 -70 3 -52 -5 -66 -2 -107 21 -27 15 -48 30 -48 34 0 4 -12 13 -26 20
-26 12 -27 11 -21 -18z m105 -128 c3 -22 -25 -40 -41 -24 -12 12 10 54 26 48
7 -2 13 -13 15 -24z"/>
<path d="M4366 3737 c3 -10 9 -15 12 -12 3 3 0 11 -7 18 -10 9 -11 8 -5 -6z"/>
<path d="M1330 3729 c-19 -5 -45 -6 -58 -4 -25 6 -65 -11 -57 -24 2 -5 18 -11
34 -14 18 -4 32 -14 36 -27 3 -11 19 -27 35 -35 18 -9 31 -26 35 -45 7 -30 24
-37 60 -24 14 6 13 8 -5 21 -39 27 -18 83 45 119 17 10 16 12 -15 27 -36 18
-57 20 -110 6z"/>
<path d="M1105 3704 c4 -11 10 -27 12 -36 6 -21 17 -23 31 -5 13 15 5 30 -27
47 -22 11 -23 11 -16 -6z"/>
<path d="M1516 3604 c-15 -19 -38 -37 -51 -40 -39 -10 -18 -25 26 -19 26 3 48
0 64 -11 14 -9 40 -14 67 -12 36 2 44 7 46 26 2 13 -2 22 -10 23 -7 1 -17 2
-23 4 -5 1 -20 3 -32 3 -13 1 -23 8 -23 15 0 7 -8 20 -19 28 -17 15 -20 14
-45 -17z"/>
<path d="M1240 3590 c0 -5 5 -10 10 -10 6 0 10 5 10 10 0 6 -4 10 -10 10 -5 0
-10 -4 -10 -10z"/>
<path d="M4797 3371 c-17 -6 -17 -8 3 -26 18 -16 21 -27 15 -59 -3 -22 -10
-46 -16 -52 -12 -15 -116 -17 -124 -3 -4 5 -15 9 -25 9 -18 0 -18 -3 5 -36 14
-20 25 -45 25 -55 0 -15 8 -19 39 -19 44 0 71 -26 71 -67 0 -31 -58 -113 -79
-113 -10 0 -30 9 -45 21 -23 18 -31 20 -56 9 -16 -7 -33 -9 -39 -6 -11 7 -25
-29 -17 -43 3 -5 20 -5 38 -2 37 8 110 -10 175 -42 100 -50 107 -216 13 -315
-12 -13 -18 -27 -13 -34 4 -7 8 -19 9 -28 1 -8 5 -25 7 -36 3 -12 2 -39 -3
-59 -7 -32 -4 -47 20 -96 15 -32 34 -65 42 -73 7 -7 29 -33 48 -57 51 -63 68
-79 86 -79 8 0 13 3 11 8 -29 56 -36 91 -42 214 -10 175 -5 204 37 212 40 8
58 -8 58 -49 0 -29 4 -33 33 -38 17 -3 36 -2 40 3 9 8 3 313 -8 378 -5 28 -3
48 4 55 7 7 11 80 11 222 l0 211 -35 1 c-30 1 -35 -3 -45 -33 -13 -37 -50 -55
-74 -35 -7 6 -20 9 -28 6 -20 -8 -48 20 -54 55 -7 31 -58 61 -87 51z m170
-394 c18 -12 33 -27 33 -33 0 -6 11 -20 25 -32 13 -12 27 -33 31 -46 13 -51
-32 -128 -81 -138 -30 -7 -73 19 -92 55 -26 47 -25 178 2 207 20 23 32 21 82
-13z m54 -277 c29 -16 26 -68 -6 -80 -49 -19 -80 21 -51 65 18 28 28 30 57 15z"/>
<path d="M4528 3335 c-2 -3 -3 -18 0 -34 3 -22 12 -32 35 -40 16 -6 32 -10 34
-8 8 9 -21 68 -37 77 -21 11 -25 12 -32 5z"/>
<path d="M2075 3174 c-8 -12 -17 -33 -21 -48 -3 -14 -21 -34 -40 -45 -19 -11
-34 -25 -34 -30 0 -5 -13 -14 -30 -20 -30 -10 -38 -25 -21 -35 5 -3 12 -26 16
-52 5 -35 10 -44 22 -40 8 3 44 6 79 6 57 0 65 2 74 23 5 12 27 64 50 115 39
91 40 93 23 116 -26 34 -98 40 -118 10z"/>
<path d="M4461 3133 c-1 -18 4 -33 9 -33 12 0 12 17 0 45 -7 17 -9 15 -9 -12z"/>
<path d="M2134 2934 c-18 -44 -10 -96 22 -132 27 -31 29 -24 10 39 -8 27 -12
65 -9 88 7 50 -3 53 -23 5z"/>
<path d="M4081 2754 c0 -11 3 -14 6 -6 3 7 2 16 -1 19 -3 4 -6 -2 -5 -13z"/>
<path d="M3919 2697 c-117 -93 -149 -124 -149 -140 0 -10 -5 -17 -11 -17 -5 0
-7 6 -3 13 5 8 2 8 -9 -2 -21 -17 -22 -31 -2 -31 8 0 24 -10 36 -22 18 -19 20
-20 11 -4 -7 14 -7 28 1 45 15 36 15 35 32 21 13 -11 15 -9 13 21 -3 28 1 35
19 37 15 2 20 8 16 19 -5 12 -2 15 10 10 12 -4 17 -1 17 9 0 11 6 14 16 10 8
-3 13 -2 10 3 -3 5 1 15 10 22 13 10 17 10 25 -2 12 -19 11 -39 -1 -39 -5 0
-10 -9 -10 -19 0 -23 -30 -37 -42 -19 -5 9 -8 7 -8 -8 0 -17 7 -23 30 -26 25
-4 30 -1 30 17 0 11 5 26 11 32 6 6 12 32 13 57 0 25 4 46 9 46 4 0 7 5 7 10
0 18 -14 11 -81 -43z"/>
<path d="M4369 2700 c8 -4 11 -15 8 -24 -4 -9 -2 -16 4 -16 5 0 12 6 15 13 5
14 61 16 83 3 6 -4 11 -2 11 4 0 7 7 10 15 6 8 -3 15 -1 15 4 0 6 -12 10 -27
11 -16 0 -53 2 -83 4 -31 2 -48 0 -41 -5z"/>
<path d="M4330 2673 c-26 -10 -41 -43 -19 -43 5 0 7 5 4 10 -3 6 3 10 14 10
12 0 21 7 21 15 0 8 -1 15 -2 14 -2 0 -10 -3 -18 -6z"/>
<path d="M4745 2669 c-4 -6 -5 -13 -2 -16 7 -7 27 6 27 18 0 12 -17 12 -25 -2z"/>
<path d="M4720 2639 c0 -11 4 -18 10 -14 5 3 7 12 3 20 -7 21 -13 19 -13 -6z"/>
<path d="M4161 2633 c-1 -7 -6 -12 -12 -10 -6 1 -14 -4 -16 -10 -5 -15 6 -17
26 -4 7 5 11 15 8 22 -4 10 -6 10 -6 2z"/>
<path d="M4075 2610 c3 -5 8 -10 11 -10 2 0 4 5 4 10 0 6 -5 10 -11 10 -5 0
-7 -4 -4 -10z"/>
<path d="M4050 2595 c0 -10 -8 -24 -17 -31 -15 -11 -13 -12 15 -2 36 14 39 20
17 38 -12 10 -15 9 -15 -5z"/>
<path d="M4745 2589 c-4 -6 -5 -12 -2 -15 2 -3 7 2 10 11 7 17 1 20 -8 4z"/>
<path d="M3951 2544 c0 -11 3 -14 6 -6 3 7 2 16 -1 19 -3 4 -6 -2 -5 -13z"/>
<path d="M3855 2540 c3 -5 8 -10 11 -10 2 0 4 5 4 10 0 6 -5 10 -11 10 -5 0
-7 -4 -4 -10z"/>
<path d="M3885 2530 c-3 -5 -1 -10 4 -10 6 0 11 5 11 10 0 6 -2 10 -4 10 -3 0
-8 -4 -11 -10z"/>
<path d="M3390 2506 c0 -3 9 -10 20 -16 11 -6 20 -8 20 -6 0 3 -9 10 -20 16
-11 6 -20 8 -20 6z"/>
<path d="M3960 2501 c0 -10 19 -25 25 -20 1 2 -3 10 -11 17 -8 7 -14 8 -14 3z"/>
<path d="M3700 2480 c6 -11 15 -20 20 -20 6 0 10 -7 10 -15 0 -19 7 -19 26 -1
8 8 11 22 8 30 -7 19 -34 21 -34 4 -1 -8 -6 -6 -14 5 -18 23 -29 22 -16 -3z"/>
<path d="M3836 2485 c4 -8 10 -15 15 -15 4 0 6 7 3 15 -4 8 -10 15 -15 15 -4
0 -6 -7 -3 -15z"/>
<path d="M4570 2489 c-30 -12 -43 -31 -27 -41 15 -9 47 0 70 20 34 30 10 42
-43 21z"/>
<path d="M3940 2470 c0 -5 5 -10 10 -10 6 0 10 5 10 10 0 6 -4 10 -10 10 -5 0
-10 -4 -10 -10z"/>
<path d="M4191 2464 c0 -11 3 -14 6 -6 3 7 2 16 -1 19 -3 4 -6 -2 -5 -13z"/>
<path d="M3310 2466 c0 -2 8 -10 18 -17 15 -13 16 -12 3 4 -13 16 -21 21 -21
13z"/>
<path d="M4408 2448 c17 -8 26 -8 34 0 9 9 4 12 -22 11 -33 0 -34 -1 -12 -11z"/>
<path d="M3289 2423 c-13 -16 -12 -17 4 -4 9 7 17 15 17 17 0 8 -8 3 -21 -13z"/>
<path d="M3288 2368 c9 -9 15 -9 24 0 9 9 7 12 -12 12 -19 0 -21 -3 -12 -12z"/>
<path d="M3290 2331 c0 -6 4 -13 10 -16 6 -3 7 1 4 9 -7 18 -14 21 -14 7z"/>
<path d="M2650 2290 c0 -5 5 -10 10 -10 6 0 10 5 10 10 0 6 -4 10 -10 10 -5 0
-10 -4 -10 -10z"/>
<path d="M747 2205 c-32 -55 -36 -68 -26 -86 6 -11 19 -46 30 -76 17 -51 17
-54 1 -48 -9 5 -134 7 -277 7 -257 -1 -259 -2 -267 -23 -5 -13 -4 -36 2 -54
10 -31 14 -33 78 -40 59 -7 64 -9 40 -17 -16 -5 -28 -13 -28 -17 0 -3 30 -14
68 -23 133 -33 187 -50 202 -64 8 -7 17 -35 20 -61 5 -50 5 -50 95 -56 l40 -2
-3 70 c-2 45 2 85 12 113 16 44 17 43 -26 46 -14 1 -28 27 -21 38 2 4 19 1 38
-6 32 -14 36 -13 52 7 10 12 29 30 43 39 14 9 38 27 54 41 l30 24 -32 47 c-59
86 -64 103 -51 141 10 27 10 37 0 49 -22 27 -34 18 -74 -49z"/>
<path d="M3115 2030 c3 -5 8 -10 11 -10 2 0 4 5 4 10 0 6 -5 10 -11 10 -5 0
-7 -4 -4 -10z"/>
<path d="M3431 2026 c-7 -8 -8 -17 -3 -20 6 -3 12 3 15 14 6 24 4 25 -12 6z"/>
<path d="M3162 2015 c-17 -9 -19 -14 -9 -18 7 -3 19 4 25 14 7 10 11 19 10 18
-2 -1 -13 -7 -26 -14z"/>
<path d="M3270 2015 c7 -9 15 -13 17 -11 7 7 -7 26 -19 26 -6 0 -6 -6 2 -15z"/>
<path d="M3480 2021 c0 -5 7 -12 16 -15 14 -5 15 -4 4 9 -14 17 -20 19 -20 6z"/>
<path d="M3242 2000 c0 -14 2 -19 5 -12 2 6 2 18 0 25 -3 6 -5 1 -5 -13z"/>
<path d="M3370 2000 c0 -5 7 -7 15 -4 8 4 15 8 15 10 0 2 -7 4 -15 4 -8 0 -15
-4 -15 -10z"/>
<path d="M2915 1990 c-3 -5 -1 -10 4 -10 6 0 11 5 11 10 0 6 -2 10 -4 10 -3 0
-8 -4 -11 -10z"/>
<path d="M3450 1971 c0 -11 5 -23 10 -26 6 -3 10 3 10 14 0 11 -4 23 -10 26
-5 3 -10 -3 -10 -14z"/>
<path d="M3050 1965 c0 -8 4 -15 10 -15 5 0 7 7 4 15 -4 8 -8 15 -10 15 -2 0
-4 -7 -4 -15z"/>
<path d="M4490 1960 c0 -6 14 -19 31 -28 17 -9 51 -32 76 -50 63 -48 64 -34 1
20 -71 60 -108 80 -108 58z"/>
<path d="M2874 1938 l-19 -21 28 18 c28 18 33 25 19 25 -5 0 -17 -10 -28 -22z"/>
<path d="M2945 1950 c3 -5 8 -10 11 -10 2 0 4 5 4 10 0 6 -5 10 -11 10 -5 0
-7 -4 -4 -10z"/>
<path d="M3329 1943 c-12 -15 -12 -16 3 -10 9 3 31 2 48 -3 23 -7 30 -6 27 3
-2 7 -11 11 -20 9 -8 -1 -18 2 -22 8 -9 15 -21 12 -36 -7z"/>
<path d="M3417 1943 c3 -7 6 -13 8 -13 2 0 5 6 8 13 3 8 -1 14 -8 14 -7 0 -11
-6 -8 -14z"/>
<path d="M2920 1930 c0 -19 3 -21 12 -12 9 9 9 15 0 24 -9 9 -12 7 -12 -12z"/>
<path d="M2974 1936 c-7 -7 -4 -16 9 -29 24 -24 31 -17 14 15 -8 17 -16 21
-23 14z"/>
<path d="M3010 1935 c-7 -9 -8 -15 -2 -15 5 0 12 7 16 15 3 8 4 15 2 15 -2 0
-9 -7 -16 -15z"/>
<path d="M2895 1905 c0 -25 9 -33 19 -16 3 4 0 16 -7 25 -11 14 -12 13 -12 -9z"/>
<path d="M3045 1920 c3 -5 8 -10 11 -10 2 0 4 5 4 10 0 6 -5 10 -11 10 -5 0
-7 -4 -4 -10z"/>
<path d="M808 1895 c-20 -26 -22 -35 -10 -35 4 0 16 14 25 30 21 36 10 40 -15
5z"/>
<path d="M2835 1910 c3 -5 8 -10 11 -10 2 0 4 5 4 10 0 6 -5 10 -11 10 -5 0
-7 -4 -4 -10z"/>
<path d="M3340 1900 c0 -11 7 -20 15 -20 8 0 15 5 15 11 0 5 -4 7 -10 4 -6 -3
-7 1 -4 9 3 9 1 16 -5 16 -6 0 -11 -9 -11 -20z"/>
<path d="M2943 1894 c0 -7 6 -15 12 -18 6 -2 12 2 12 10 0 7 -6 15 -12 18 -6
2 -12 -2 -12 -10z"/>
<path d="M3380 1901 c0 -5 5 -13 10 -16 6 -3 10 -2 10 4 0 5 -4 13 -10 16 -5
3 -10 2 -10 -4z"/>
<path d="M75 1890 c-3 -5 1 -10 9 -10 9 0 16 5 16 10 0 6 -4 10 -9 10 -6 0
-13 -4 -16 -10z"/>
<path d="M3083 1886 c9 -7 17 -18 17 -25 0 -12 13 -15 23 -5 7 7 -36 44 -50
44 -4 0 0 -7 10 -14z"/>
<path d="M2916 1863 c-6 -14 -5 -15 5 -6 7 7 10 15 7 18 -3 3 -9 -2 -12 -12z"/>
<path d="M771 1834 c0 -11 3 -14 6 -6 3 7 2 16 -1 19 -3 4 -6 -2 -5 -13z"/>
<path d="M818 1786 c-20 -14 -24 -36 -8 -36 6 0 10 -11 10 -25 0 -14 -4 -25
-8 -25 -4 0 -14 -17 -21 -37 -8 -21 -16 -44 -18 -50 -3 -7 0 -13 6 -13 6 0 13
11 17 25 3 14 18 35 32 46 33 26 84 101 74 110 -16 14 -68 17 -84 5z"/>
<path d="M46 1718 c-13 -29 -27 -51 -32 -48 -5 3 -10 -16 -12 -42 -3 -51 4
-58 30 -30 9 9 24 23 32 30 12 9 15 29 14 77 -1 36 -4 65 -6 65 -2 0 -14 -24
-26 -52z"/>
<path d="M1304 1719 c-3 -5 -14 -9 -25 -9 -10 0 -19 -7 -19 -15 0 -8 -6 -12
-12 -10 -8 3 -26 -20 -45 -58 -17 -34 -37 -61 -43 -59 -7 2 -10 -3 -7 -12 4
-10 1 -13 -9 -9 -7 3 -14 1 -14 -5 0 -5 -26 -36 -57 -68 -31 -33 -53 -52 -49
-44 4 8 -2 4 -13 -10 -11 -14 -21 -34 -21 -46 0 -11 -15 -34 -32 -52 -46 -44
-68 -70 -68 -82 0 -6 -9 -6 -24 0 -24 9 -25 7 -32 -46 -3 -30 -10 -57 -15 -59
-12 -8 -3 -270 12 -335 6 -30 14 -49 16 -42 8 21 23 13 23 -13 0 -28 19 -35
21 -7 1 9 1 21 0 26 -1 4 2 13 7 20 6 6 13 25 17 43 3 18 15 51 27 74 21 43
39 97 64 187 22 82 59 155 152 297 90 138 107 172 91 177 -12 4 -1 38 12 38 6
0 20 9 32 21 27 26 66 43 92 40 31 -3 95 27 95 44 0 18 -12 19 -28 3 -9 -9
-16 -8 -29 4 -20 16 -109 22 -119 7z m-424 -508 c0 -12 -20 -25 -27 -18 -7 7
6 27 18 27 5 0 9 -4 9 -9z"/>
<path d="M1497 1703 c-4 -3 -7 -13 -7 -21 0 -12 3 -12 15 -2 8 7 15 16 15 21
0 11 -14 12 -23 2z"/>
<path d="M830 1284 c0 -14 4 -23 9 -20 5 3 7 15 4 26 -7 28 -13 25 -13 -6z"/>
<path d="M4020 1199 c0 -5 5 -7 10 -4 6 3 10 8 10 11 0 2 -4 4 -10 4 -5 0 -10
-5 -10 -11z"/>
<path d="M3990 1170 c0 -5 6 -10 14 -10 8 0 18 5 21 10 3 6 -3 10 -14 10 -12
0 -21 -4 -21 -10z"/>
<path d="M1206 1034 c-11 -8 -28 -12 -38 -8 -10 3 -18 0 -18 -6 0 -6 4 -9 9
-6 5 4 1 -12 -10 -33 -10 -22 -19 -47 -19 -57 0 -10 -5 -14 -15 -10 -22 8 -52
-27 -52 -59 0 -16 -7 -33 -15 -39 -20 -15 -38 -50 -38 -76 0 -27 -41 -44 -54
-22 -5 9 -4 22 3 33 6 11 11 27 11 36 -1 14 -4 12 -14 -7 -17 -33 -28 -90 -17
-90 17 0 21 -31 9 -78 -14 -55 -26 -74 -42 -66 -6 3 -4 0 5 -8 10 -9 15 -26
13 -50 -3 -31 0 -36 14 -31 13 5 15 4 7 -8 -18 -25 -5 -198 20 -269 9 -25 18
-61 21 -80 2 -19 9 -50 15 -67 10 -32 12 -33 68 -33 l57 0 0 198 c0 200 16
330 69 552 9 36 20 85 25 110 6 24 15 49 20 54 13 13 11 63 -3 103 -11 29 -14
30 -31 17z"/>
<path d="M1260 1009 c0 -5 5 -7 10 -4 6 3 10 8 10 11 0 2 -4 4 -10 4 -5 0 -10
-5 -10 -11z"/>
<path d="M3490 926 c0 -9 5 -16 10 -16 6 0 10 4 10 9 0 6 -4 13 -10 16 -5 3
-10 -1 -10 -9z"/>
<path d="M3670 885 c-10 -12 -10 -15 4 -15 9 0 16 7 16 15 0 8 -2 15 -4 15 -2
0 -9 -7 -16 -15z"/>
<path d="M3675 850 c-8 -13 4 -32 16 -25 12 8 12 35 0 35 -6 0 -13 -4 -16 -10z"/>
<path d="M3290 625 c0 -8 2 -15 4 -15 2 0 12 -3 21 -6 15 -6 15 -4 4 15 -16
25 -29 27 -29 6z"/>
<path d="M3367 590 c6 -24 19 -34 61 -48 19 -7 32 -7 32 -1 0 5 5 9 10 9 6 0
10 -7 10 -15 0 -8 6 -15 14 -15 7 0 19 7 26 15 7 8 8 15 2 15 -5 0 -24 14 -41
32 -25 25 -31 28 -31 14 0 -13 -5 -16 -17 -11 -10 4 -24 8 -30 8 -7 0 -13 4
-13 9 0 4 -6 8 -14 8 -9 0 -12 -7 -9 -20z"/>
<path d="M1360 542 c0 -13 -6 -22 -15 -22 -9 0 -27 -24 -44 -58 -24 -52 -47
-89 -81 -129 -6 -7 -9 -16 -8 -20 4 -17 -14 -53 -28 -53 -8 0 -14 -9 -14 -21
0 -11 -4 -18 -9 -15 -5 4 -7 -3 -4 -13 3 -11 0 -42 -6 -70 -6 -28 -8 -71 -4
-96 6 -46 6 -46 41 -43 l36 3 32 105 c18 58 45 137 59 175 15 39 32 86 38 105
6 19 15 38 20 41 5 4 10 22 11 40 1 19 4 39 8 45 4 6 -1 19 -12 29 -19 18 -20
17 -20 -3z"/>
<path d="M3580 516 c0 -8 5 -18 10 -21 6 -3 10 1 10 9 0 8 -4 18 -10 21 -5 3
-10 -1 -10 -9z"/>
<path d="M3516 495 c4 -8 10 -12 15 -9 11 6 2 24 -11 24 -5 0 -7 -7 -4 -15z"/>
<path d="M3670 465 c0 -8 5 -15 10 -15 6 0 10 7 10 15 0 8 -4 15 -10 15 -5 0
-10 -7 -10 -15z"/>
<path d="M2857 336 c-4 -10 0 -12 14 -9 22 6 26 23 5 23 -8 0 -16 -6 -19 -14z"/>
<path d="M2909 326 c-1 -3 -2 -10 -3 -15 -2 -15 -16 -26 -16 -13 0 7 -4 12
-10 12 -16 0 -12 -30 5 -36 8 -4 15 -15 15 -26 0 -28 18 -58 35 -58 8 0 15 -7
15 -15 0 -8 9 -19 20 -25 11 -6 20 -21 20 -33 0 -28 15 -51 28 -43 5 3 12 -12
16 -34 l6 -40 49 0 c42 0 49 3 55 23 10 38 7 57 -10 57 -9 0 -18 9 -21 20 -3
11 -12 20 -20 20 -11 0 -13 7 -9 25 5 18 1 27 -13 35 -11 5 -21 20 -23 32 -2
13 -10 24 -18 24 -8 1 -23 2 -32 3 -10 0 -20 12 -24 26 -7 27 -19 33 -27 13
-3 -7 -6 -3 -6 8 -1 20 -29 55 -32 40z"/>
<path d="M2430 119 l0 -119 35 0 35 0 -5 42 c-19 146 -29 187 -47 191 -17 5
-18 -4 -18 -114z"/>
<path d="M1501 175 c-38 -21 -91 -84 -112 -132 l-18 -43 59 0 c57 0 86 14 61
30 -10 5 -9 16 3 45 9 20 16 47 16 58 0 11 7 29 17 39 19 21 9 22 -26 3z"/>
</g>
</svg>
